<svg width="35" height="35" viewBox="0 0 35 35" fill="none" xmlns="http://www.w3.org/2000/svg">
<g clip-path="url(#clip0_10_79)">
<path d="M14.5833 23.3333V21.875H4.38959L4.37501 27.7083C4.37501 29.3271 5.67292 30.625 7.29167 30.625H27.7083C29.3271 30.625 30.625 29.3271 30.625 27.7083V21.875H20.4167V23.3333H14.5833ZM29.1667 10.2083H23.3188V7.29167L20.4021 4.375H14.5688L11.6521 7.29167V10.2083H5.83334C4.22917 10.2083 2.91667 11.5208 2.91667 13.125V17.5C2.91667 19.1188 4.21459 20.4167 5.83334 20.4167H14.5833V17.5H20.4167V20.4167H29.1667C30.7708 20.4167 32.0833 19.1042 32.0833 17.5V13.125C32.0833 11.5208 30.7708 10.2083 29.1667 10.2083ZM20.4167 10.2083H14.5833V7.29167H20.4167V10.2083Z" fill="#009D81"/>
</g>
<defs>
<clipPath id="clip0_10_79">
<rect width="35" height="35" fill="white"/>
</clipPath>
</defs>
</svg>
