<svg width="35" height="35" viewBox="0 0 35 35" fill="none" xmlns="http://www.w3.org/2000/svg">
<g clip-path="url(#clip0_10_98)">
<path d="M13.125 30.625C13.125 31.3542 13.7083 32.0833 14.5833 32.0833H20.4167C21.2917 32.0833 21.875 31.3542 21.875 30.625V29.1667H13.125V30.625ZM17.5 2.91666C11.8125 2.91666 7.29167 7.4375 7.29167 13.125C7.29167 16.625 9.04167 19.6875 11.6667 21.4375V24.7917C11.6667 25.5208 12.25 26.25 13.125 26.25H21.875C22.75 26.25 23.3333 25.5208 23.3333 24.7917V21.4375C25.9583 19.5417 27.7083 16.4792 27.7083 13.125C27.7083 7.4375 23.1875 2.91666 17.5 2.91666Z" fill="#009D81"/>
</g>
<defs>
<clipPath id="clip0_10_98">
<rect width="35" height="35" fill="white"/>
</clipPath>
</defs>
</svg>
