<svg width="42" height="23" viewBox="0 0 42 23" fill="none" xmlns="http://www.w3.org/2000/svg">
<path d="M37.5 0H3.75C1.6875 0 0 1.6875 0 3.75V18.75C0 20.8125 1.6875 22.5 3.75 22.5H37.5C39.5625 22.5 41.25 20.8125 41.25 18.75V3.75C41.25 1.6875 39.5625 0 37.5 0ZM18.75 13.125H13.125V18.75H9.375V13.125H3.75V9.375H9.375V3.75H13.125V9.375H18.75V13.125ZM27.1875 16.875C25.6313 16.875 24.375 15.6187 24.375 14.0625C24.375 12.5063 25.6313 11.25 27.1875 11.25C28.7437 11.25 30 12.5063 30 14.0625C30 15.6187 28.7437 16.875 27.1875 16.875ZM34.6875 11.25C33.1313 11.25 31.875 9.99375 31.875 8.4375C31.875 6.88125 33.1313 5.625 34.6875 5.625C36.2437 5.625 37.5 6.88125 37.5 8.4375C37.5 9.99375 36.2437 11.25 34.6875 11.25Z" fill="#009D81"/>
</svg>
